<svg width="192" height="83" fill="none" xmlns="http://www.w3.org/2000/svg"><g clip-path="url(#clip0)"><path d="M93.093 38.903h11.906v4.644H83.901l13.001-17.075h-10.24V21.83h19.336L93.093 38.903zm33.726-.31c-.858 1.651-2.096 3.095-3.382 3.972-1.619 1.135-3.762 1.65-5.906 1.65-2.667 0-4.857-.721-6.762-2.784-1.905-2.063-2.953-5.055-2.953-8.305 0-3.353 1.096-6.603 3.19-8.925 1.668-1.804 3.857-2.94 6.715-2.94 3.191 0 5.238 1.497 6.43 2.838 2.572 2.889 2.809 6.913 2.809 9.182v.62h-14.382c.094 1.547.713 3.302 1.713 4.384 1.095 1.187 2.429 1.393 3.572 1.393 1.287 0 2.238-.31 3.192-1.083.809-.67 1.428-1.547 1.857-2.373l3.907 2.371zm-4.62-8.82c-.19-1.187-.715-2.218-1.429-2.94-.619-.618-1.618-1.237-3.143-1.237-1.62 0-2.667.721-3.286 1.392-.666.67-1.191 1.702-1.428 2.786h9.286v-.001zm14.294-5.417c1.905-2.682 4.477-3.096 5.953-3.096 5.287 0 9.762 4.334 9.762 11.4 0 5.985-3.523 11.554-9.715 11.554-1.428 0-3.952-.36-6.001-2.94v2.271h-4.668V5.94h4.668v18.416h.001zm-.286 8.462c0 4.54 2.714 6.86 5.667 6.86 3.382 0 5.573-3.148 5.573-6.913 0-3.869-2.191-6.964-5.573-6.964-2.953 0-5.667 2.27-5.667 7.017zm20.868-10.989h4.668v1.96c.523-.67 1.285-1.394 1.951-1.806.906-.566 1.811-.723 2.859-.723 1.143 0 2.381.206 3.666 1.033l-1.904 4.591c-1.048-.722-1.905-.774-2.381-.774-1 0-2.001.155-2.906 1.186-1.285 1.495-1.285 3.56-1.285 5.003v11.246h-4.668V21.83zm29.483 0h4.668v21.718h-4.668v-2.271c-2.047 2.579-4.571 2.94-6.001 2.94-6.191 0-9.715-5.57-9.715-11.555 0-7.066 4.475-11.4 9.762-11.4 1.476 0 4.048.414 5.953 3.097v-2.53h.001zm-10.953 10.936c0 3.765 2.191 6.913 5.572 6.913 2.952 0 5.667-2.32 5.667-6.86 0-4.747-2.714-7.017-5.667-7.017-3.381 0-5.572 3.095-5.572 6.964z" fill="#000"/><path d="M70.626 43.98c0 6.308-4.71 11.351-10.435 11.351H42.386l28.24-38.506V43.98zM21.526.5L11.514 14.238l-.58.794h37.58L.5 80.375v-68.53C.5 5.543 5.211.5 10.941.5h10.585z" fill="#003883" stroke="#000"/></g><defs><clipPath id="clip0"><path fill="#fff" transform="translate(0 .164)" d="M0 0h191.226v81.9H0z"/></clipPath></defs></svg>