<svg width="77" height="95" fill="none" xmlns="http://www.w3.org/2000/svg"><path d="M38.095 6.585c-20.987 0-38 19.425-38 43.387 0 23.963 17.013 43.39 38 43.39 20.986 0 38-19.427 38-43.39 0-23.962-17.014-43.387-38-43.387z" fill="#BED8F2"/><path d="M17.6 15.171c-1.038-1.205-3.262-.829-4.968.84-1.706 1.668-2.248 3.994-1.21 5.198L23.88 36.622c1.039 1.205 3.263.828 4.97-.84 1.705-1.668 2.246-3.996 1.207-5.201L17.6 15.17z" fill="#fff"/><path d="M28.85 35.781c-1.032 1.008-2.254 1.546-3.288 1.546-.675 0-1.27-.23-1.68-.706L11.423 21.209c-1.04-1.204-.498-3.531 1.208-5.199 1.032-1.008 2.253-1.545 3.287-1.545.675 0 1.272.23 1.681.707L30.057 30.58c1.04 1.204.498 3.533-1.207 5.2zm-10.765-21.12c-.004-.007-.009-.012-.013-.017-.525-.61-1.27-.933-2.153-.933-1.24 0-2.594.629-3.716 1.726-1.18 1.152-1.914 2.665-1.965 4.046-.033.89.211 1.666.707 2.244l12.45 15.405.015.018c.525.608 1.268.93 2.151.93 1.24 0 2.594-.63 3.718-1.728 1.178-1.152 1.913-2.664 1.963-4.045.034-.89-.21-1.667-.707-2.247l-12.45-15.4z" fill="#19365C"/><path d="M20.058 18.21v13.682l3.822 4.73c1.039 1.204 3.263.826 4.97-.841 1.705-1.666 2.247-3.995 1.208-5.2l-10-12.37z" fill="#D4E5F7"/><path d="M47.405 40.902l-20.433 15.43L22.726 52c-1.05-1.193-2.291 2.012-3.98 3.703-1.689 1.69-5.474 1.325-4.423 4.04 0 0 6.156 5.952 6.86 7.17l8.842 15.262c2.954 5.1 8.969 6.499 13.436 3.127l12.549-9.478c4.467-3.372 5.69-10.24 2.738-15.34L47.405 40.903z" fill="#fff"/><path d="M59.837 68.724c-.5 2.799-1.924 5.208-4.01 6.784l-12.548 9.478c-1.552 1.171-3.331 1.777-5.149 1.777-.627 0-1.26-.072-1.889-.219-2.451-.57-4.56-2.196-5.94-4.58l-8.842-15.261c-.692-1.196-6.187-6.537-6.862-7.193-.14-.39-.162-.699-.068-.945.219-.56 1.063-.881 1.958-1.222.846-.322 1.806-.688 2.477-1.36.602-.603 1.15-1.392 1.634-2.088.598-.862 1.218-1.752 1.623-1.78.057-.005.15.007.274.148l.014.015 4.245 4.334a.3.3 0 00.402.033L47.313 41.42l11.16 19.267c1.378 2.384 1.863 5.238 1.364 8.036zM47.68 40.694a.332.332 0 00-.208-.16.303.303 0 00-.248.054l-20.22 15.27-4.051-4.134c-.23-.258-.49-.38-.77-.36-.702.047-1.32.938-2.102 2.064-.49.704-.993 1.432-1.552 1.99-.57.57-1.425.896-2.252 1.211-1.035.395-2.016.768-2.35 1.631-.181.467-.15 1.001.094 1.634.02.052.05.098.089.135 1.703 1.646 6.24 6.13 6.799 7.089l8.841 15.263c1.477 2.55 3.735 4.292 6.359 4.902.673.157 1.35.235 2.022.235 1.947 0 3.85-.65 5.51-1.903l12.55-9.477c2.233-1.687 3.758-4.266 4.293-7.262.534-2.996.015-6.05-1.462-8.601L47.68 40.695z" fill="#19365C"/><path d="M29.485 53.176l-7.5-9.4c-1.035-1.21-3.26-.842-4.971.819-1.712 1.662-2.261 3.988-1.226 5.194l8.741 10.883c1.035 1.21 3.26.841 4.973-.82l-.45-2.098c1.709-1.66 1.469-3.369.433-4.578z" fill="#D4E5F7"/><path d="M29.051 57.754l.45 2.098c-1.032 1-2.25 1.532-3.28 1.532-.681 0-1.28-.231-1.693-.712l-8.74-10.883c-1.036-1.206-.488-3.533 1.225-5.194 1.03-1 2.248-1.532 3.28-1.532.68 0 1.28.233 1.691.714l7.501 9.398c1.035 1.208 1.275 2.92-.434 4.58zm-6.58-14.484l-.015-.019c-.525-.616-1.274-.941-2.164-.941-1.235 0-2.587.624-3.706 1.712-1.182 1.148-1.922 2.656-1.978 4.038-.035.89.207 1.665.7 2.247l8.735 10.875.015.016c.525.615 1.274.938 2.163.938 1.235 0 2.587-.623 3.709-1.71a.82.82 0 00.213-.753l-.356-1.664c.32-.358.58-.731.769-1.117.245-.497.38-1.014.401-1.537.04-.958-.304-1.89-.99-2.696l-7.495-9.39z" fill="#19365C"/><path d="M29.725 41.926l-7.5-9.398c-1.034-1.21-3.26-.842-4.971.818-1.711 1.66-2.261 3.987-1.226 5.194l8.741 10.883c1.036 1.21 3.26.84 4.973-.82l-.45-2.098c1.71-1.661 1.47-3.37.433-4.58z" fill="#D4E5F7"/><path d="M29.293 46.504l.45 2.098c-1.032 1-2.25 1.532-3.281 1.532-.68 0-1.28-.232-1.692-.713L16.029 38.54c-1.035-1.206-.486-3.533 1.226-5.194 1.03-1 2.247-1.532 3.279-1.532.68 0 1.28.232 1.692.714l7.5 9.398c1.035 1.208 1.276 2.919-.433 4.58zm-6.58-14.484l-.016-.018c-.526-.617-1.274-.942-2.164-.942-1.235 0-2.587.624-3.706 1.712-1.183 1.147-1.923 2.657-1.978 4.038-.035.89.207 1.665.7 2.247l8.735 10.874.014.017c.526.615 1.274.938 2.164.938 1.235 0 2.586-.624 3.708-1.71a.819.819 0 00.214-.755l-.357-1.662a4.99 4.99 0 00.77-1.117c.245-.497.38-1.014.401-1.537.039-.958-.304-1.891-.99-2.696l-7.496-9.39z" fill="#19365C"/><path d="M26.973 56.333L22.727 52c-.145-.165-.292-.245-.444-.26v16.783s3.256 5.696 3.32 5.696h25.088c1.83 0 3.32-1.701 3.32-3.79V52.305l-6.605-11.403-20.433 15.43z" fill="#D4E5F7"/><path d="M51.077 1.368H25.989c-1.83 0-3.32 1.701-3.32 3.791v63.82c0 2.088 1.49 3.789 3.32 3.789h25.088c1.83 0 3.32-1.702 3.32-3.79V5.16c0-2.09-1.49-3.791-3.32-3.791z" fill="#8ABEE8"/><path d="M54.067 68.978c0 1.883-1.34 3.415-2.99 3.415H25.99c-1.649 0-2.99-1.532-2.99-3.415V5.16c0-1.883 1.341-3.414 2.99-3.414h25.087c1.65 0 2.99 1.53 2.99 3.414v63.82zM51.077.992H25.99c-2.012 0-3.65 1.87-3.65 4.167v63.82c0 2.296 1.637 4.166 3.65 4.166h25.087c2.013 0 3.65-1.87 3.65-4.167V5.16c0-2.297-1.637-4.167-3.65-4.167z" fill="#19365C"/><path d="M42.42 6.997h-7.775c-.39 0-.708.361-.708.807 0 .446.318.808.708.808h7.775c.39 0 .708-.362.708-.808 0-.446-.317-.807-.708-.807z" fill="#85CAF0"/><path d="M42.42 6.395h-7.775c-.39 0-.708.361-.708.806 0 .447.318.808.708.808h7.775c.39 0 .708-.361.708-.808 0-.446-.317-.806-.708-.806z" fill="#D4E5F7"/><path d="M42.42 8.01h-7.775c-.39 0-.707-.362-.707-.809 0-.445.317-.806.707-.806h7.776c.39 0 .708.361.708.806 0 .447-.317.808-.708.808zm0-2.369h-7.775c-.753 0-1.367.7-1.367 1.56 0 .862.615 1.561 1.367 1.561h7.776c.755 0 1.366-.699 1.366-1.56 0-.861-.611-1.56-1.366-1.56z" fill="#19365C"/><path d="M41.177 67.81H35.89c-.51 0-.923.47-.923 1.053s.413 1.053.923 1.053h5.287c.51 0 .922-.47.922-1.052 0-.583-.412-1.053-.922-1.053z" fill="#D4E5F7"/><path d="M41.178 69.916H35.89c-.51 0-.923-.47-.923-1.052 0-.583.414-1.053.923-1.053h5.288c.509 0 .921.47.921 1.052 0 .582-.412 1.053-.921 1.053zm0-2.86H35.89c-.873 0-1.582.812-1.582 1.808 0 .995.709 1.805 1.582 1.805h5.288c.872 0 1.582-.81 1.582-1.805 0-.996-.711-1.807-1.582-1.807z" fill="#19365C"/><path d="M52.09 10.582H24.976v54.235H52.09V10.582z" fill="#fff"/><path d="M52.09 64.818H24.977V10.584h27.115v54.234zm0-54.989H24.977c-.366 0-.66.338-.66.754v54.235c0 .415.294.753.66.753h27.115c.364 0 .66-.338.66-.753V10.583c0-.417-.296-.754-.66-.754z" fill="#19365C"/><path d="M25.61 44.534l-5.302-3.011c-1.327-.748-3.319.445-4.448 2.663-1.128 2.217-.966 4.619.362 5.363l5.303 3.014c1.328.746 3.318-.449 4.449-2.665 1.128-2.216.967-4.618-.363-5.364z" fill="#fff"/><path d="M25.975 49.897c-.902 1.77-2.351 2.889-3.576 2.889-.309 0-.604-.072-.873-.222l-5.304-3.016c-1.328-.744-1.49-3.145-.361-5.363.9-1.769 2.35-2.887 3.574-2.887.31 0 .605.073.874.224l5.302 3.01c1.33.748 1.49 3.15.364 5.365zm-.07-6.039l-5.302-3.011h-.001a2.341 2.341 0 00-1.166-.302c-.744 0-1.535.317-2.286.917-.731.583-1.374 1.394-1.858 2.346-.78 1.53-1.036 3.237-.686 4.56.227.856.686 1.497 1.324 1.856l5.302 3.013a2.353 2.353 0 001.168.302c.744 0 1.535-.317 2.288-.916.73-.584 1.374-1.395 1.859-2.347.779-1.531 1.035-3.236.685-4.56-.23-.855-.688-1.497-1.328-1.858z" fill="#19365C"/><path d="M20.656 46.76c-.714 1.402-.436 3.022.62 3.615l1.49.837c.45-.42.626-.394 1.71-2.483.873-1.683.88-2.604.88-2.604l-1.491-.835c-1.058-.594-2.494.064-3.21 1.47z" fill="#D4E5F7"/><path d="M24.475 48.73c-1.083 2.088-1.26 2.062-1.708 2.482l-1.49-.837c-1.058-.595-1.335-2.213-.62-3.616.535-1.054 1.477-1.688 2.362-1.688.294 0 .582.07.846.22l1.491.834s-.008.921-.88 2.604zm1.17-3.28l-1.49-.835a2.296 2.296 0 00-1.137-.296c-1.145 0-2.296.81-2.934 2.062-.477.94-.61 2.013-.363 2.944.204.77.654 1.385 1.264 1.728l1.49.834a.61.61 0 00.292.079.6.6 0 00.417-.172 5.68 5.68 0 01.153-.136c.436-.38.752-.706 1.706-2.546.937-1.804.971-2.865.972-2.98.002-.29-.141-.556-.37-.683z" fill="#19365C"/><path d="M20.656 46.76a3.519 3.519 0 00-.386 1.867c.584-.264 1.125-.782 1.484-1.488a3.499 3.499 0 00.385-1.867c-.584.265-1.125.782-1.483 1.487zm3.646 8.443L19 52.194c-1.328-.749-3.32.444-4.448 2.662-1.13 2.217-.966 4.62.362 5.365l5.303 3.014c1.328.745 3.32-.45 4.448-2.666 1.129-2.217.966-4.619-.363-5.364z" fill="#fff"/><path d="M24.666 60.567c-.902 1.77-2.352 2.89-3.576 2.89-.31 0-.605-.073-.873-.223l-5.305-3.015c-1.328-.745-1.49-3.145-.36-5.364.9-1.768 2.35-2.885 3.573-2.885.31 0 .605.071.874.222l5.303 3.011c1.33.746 1.492 3.15.364 5.364zm-.071-6.04l-5.301-3.01h-.002a2.342 2.342 0 00-1.166-.301c-.744 0-1.535.317-2.286.914-.73.585-1.373 1.395-1.858 2.346-.78 1.531-1.036 3.238-.686 4.561.227.857.686 1.498 1.325 1.855l5.303 3.016h.002c.354.2.745.3 1.164.3.744 0 1.534-.316 2.287-.914.731-.583 1.375-1.395 1.86-2.348.779-1.53 1.035-3.234.684-4.558-.229-.856-.686-1.499-1.326-1.86z" fill="#19365C"/><path d="M23.172 32.565l-2.055-1.268c-1.68-.949-3.986.068-5.15 2.265-1.163 2.196-.745 4.745.937 5.69l2.055 1.272c1.681.945 3.986-.072 5.15-2.269 1.164-2.196.745-4.745-.937-5.69z" fill="#fff"/><path d="M24.11 38.255c-.868 1.64-2.373 2.622-3.779 2.622-.477 0-.944-.114-1.371-.354l-2.057-1.273c-1.681-.944-2.1-3.493-.935-5.69.867-1.639 2.37-2.62 3.775-2.62.479 0 .947.114 1.373.355l2.056 1.269c1.682.946 2.1 3.495.938 5.691zm-.635-6.36l-2.045-1.262-.021-.013a3.347 3.347 0 00-1.666-.433c-1.677 0-3.38 1.171-4.34 2.985-.724 1.364-.94 2.923-.593 4.276.283 1.1.918 1.978 1.79 2.471l2.045 1.266.022.014a3.346 3.346 0 001.664.431c.82 0 1.66-.278 2.43-.803.776-.53 1.437-1.284 1.913-2.181.723-1.365.938-2.924.59-4.277-.281-1.102-.916-1.977-1.789-2.473z" fill="#19365C"/><path d="M19.648 35.56c-.7 1.411-.556 2.953.32 3.445l1.235.692c.412-.439.563-.43 1.624-2.532.853-1.694.913-2.583.913-2.583l-1.235-.691c-.878-.492-2.156.256-2.857 1.669z" fill="#D4E5F7"/><path d="M22.826 37.166c-1.06 2.102-1.21 2.091-1.623 2.532l-1.235-.692c-.876-.492-1.02-2.034-.32-3.445.555-1.119 1.471-1.821 2.265-1.821.208 0 .409.048.59.151l1.236.69c.001 0-.06.89-.913 2.585zm1.205-3.261l-1.236-.691a1.784 1.784 0 00-.882-.227c-1.062 0-2.175.863-2.839 2.202-.512 1.033-.662 2.158-.411 3.087.172.635.533 1.134 1.015 1.405l1.236.692c.092.05.192.077.29.077.164 0 .326-.07.45-.203.05-.053.094-.097.142-.145.403-.406.677-.726 1.602-2.56.902-1.791.993-2.794 1-2.902.02-.308-.125-.6-.367-.735z" fill="#19365C"/><path d="M19.648 35.56c-.335.675-.477 1.383-.437 1.988.568-.28 1.124-.853 1.507-1.625.334-.676.476-1.383.436-1.99-.568.282-1.123.855-1.506 1.627z" fill="#fff"/><path d="M18.96 57.28c-.714 1.403-.437 3.023.62 3.616l1.49.836c.45-.418.625-.394 1.71-2.482.872-1.683.879-2.604.879-2.604l-1.49-.835c-1.057-.594-2.495.064-3.21 1.469z" fill="#D4E5F7"/><path d="M22.78 59.25c-1.084 2.089-1.261 2.063-1.709 2.482l-1.49-.837c-1.058-.594-1.334-2.212-.62-3.615.535-1.055 1.478-1.688 2.363-1.688.294 0 .581.07.845.219l1.491.835s-.008.921-.88 2.604zm1.17-3.28l-1.49-.835a2.295 2.295 0 00-1.137-.295c-1.146 0-2.297.809-2.934 2.062-.478.94-.61 2.012-.363 2.944.203.77.653 1.384 1.264 1.727l1.49.837c.092.05.192.078.291.078a.6.6 0 00.417-.172l.153-.136c.436-.38.752-.706 1.707-2.545.936-1.806.97-2.866.971-2.981.003-.29-.14-.558-.369-.684z" fill="#19365C"/><path d="M18.96 57.28a3.52 3.52 0 00-.386 1.868c.584-.265 1.125-.782 1.484-1.488a3.5 3.5 0 00.385-1.868c-.583.266-1.124.782-1.483 1.488zm39.887-19.047c-3.17 0-5.742 2.934-5.742 6.555V58.01c-3.628 2.245-6.127 6.982-6.127 12.46 0 1.353.152 2.661.437 3.898l2.739 5.878 5.854-4.422c2.573-1.943 4.07-5.043 4.312-8.297v-27.61c0-.93-.66-1.682-1.473-1.682z" fill="#fff"/><path d="M58.846 37.856c-3.346 0-6.07 3.109-6.07 6.932v12.999c-1.788 1.156-3.3 2.899-4.38 5.053-1.144 2.279-1.748 4.915-1.748 7.63 0 1.357.151 2.7.448 3.992.046.201.227.322.404.27.175-.053.28-.26.234-.462a16.981 16.981 0 01-.427-3.8c0-2.583.575-5.092 1.662-7.256 1.054-2.1 2.539-3.788 4.296-4.874a.387.387 0 00.172-.33V44.787c0-3.407 2.427-6.179 5.41-6.179.63 0 1.145.586 1.145 1.306v27.593c-.25 3.275-1.768 6.19-4.164 8l-5.856 4.423a.407.407 0 00-.092.521c.063.11.167.17.274.17a.306.306 0 00.181-.063l5.855-4.423c2.57-1.94 4.195-5.067 4.459-8.58V39.916c0-1.135-.81-2.059-1.803-2.059z" fill="#19365C"/><path d="M59.788 40.313c-1.331 0-2.41 1.233-2.41 2.754v2.873h2.944v-5.559a2.134 2.134 0 00-.534-.068z" fill="#D4E5F7"/><path d="M59.989 45.562h-2.284v-2.496c0-1.31.934-2.377 2.083-2.377.065 0 .134.003.201.012v4.861zm.403-5.549a2.456 2.456 0 00-.604-.077c-1.512 0-2.743 1.404-2.743 3.13v2.873c0 .208.148.377.331.377h2.944c.181 0 .329-.168.329-.377V40.38c0-.175-.105-.327-.257-.367zm-.146 11.777h-2.434c-.182 0-.329.169-.329.377 0 .209.147.377.329.377h2.434c.181 0 .328-.168.328-.377s-.146-.377-.328-.377zm-1.326 1.094h-1.107c-.182 0-.33.169-.33.377 0 .209.148.377.33.377h1.106c.182 0 .329-.168.329-.377 0-.208-.147-.377-.329-.377zM39.425 87.373c-1.059.779-2.184 3.721-2.644 5.963.436.015.874.025 1.313.025 10.437 0 19.89-4.804 26.758-12.581l-4.704-8.668-20.723 15.26z" fill="#19365C"/><path d="M38.095 93.362c-.439 0-.877-.01-1.313-.027.46-2.242 1.585-5.182 2.643-5.96L60.15 72.112l4.702 8.669c-6.868 7.777-16.32 12.58-26.757 12.58zM60.71 71.715a.67.67 0 00-.416-.338.598.598 0 00-.503.102L39.067 86.74c-.602.444-1.2 1.364-1.783 2.738a20.436 20.436 0 00-1.146 3.686.84.84 0 00.119.628c.12.18.304.288.5.295a34.285 34.285 0 009.087-.86c2.47-.574 4.9-1.432 7.222-2.545a37.466 37.466 0 006.542-4.03 40.465 40.465 0 005.708-5.338.832.832 0 00.097-.93l-4.704-8.668z" fill="#19365C"/><path d="M46.71 31.4H31.814c-.599 0-1.083.555-1.083 1.237v13.137c0 .683.484 1.236 1.083 1.236h5.535v2.82c0 .564.596.846.944.447l2.86-3.267h5.556c.598 0 1.083-.553 1.083-1.236V32.637c0-.682-.485-1.236-1.084-1.236z" fill="#F9B234"/><path opacity=".82" d="M37.908 50.702a.68.68 0 01-.296-.068c-.29-.137-.47-.444-.47-.803V47.25h-5.326c-.712 0-1.291-.662-1.291-1.474V32.637c0-.813.58-1.474 1.291-1.474h14.895c.712 0 1.291.662 1.291 1.474v13.137c0 .813-.579 1.474-1.29 1.474h-5.47l-2.8 3.198a.713.713 0 01-.534.256zm-6.093-19.064c-.482 0-.875.448-.875 1v13.136c0 .55.392.998.875.998h5.535c.115 0 .209.107.209.238v2.821c0 .165.08.301.212.365a.307.307 0 00.376-.086l2.86-3.267a.198.198 0 01.148-.07h5.556c.482 0 .875-.447.875-.998V32.637c0-.55-.392-.999-.875-.999H31.815z" fill="#19365C"/><path d="M44.627 34.64h-10.73c-.291 0-.545.243-.577.572-.037.388.228.718.56.718h10.762c.333 0 .598-.33.561-.718-.033-.33-.287-.572-.576-.572z" fill="#fff"/><path opacity=".82" d="M44.643 36.167H33.88a.738.738 0 01-.575-.293.971.971 0 01-.192-.69c.044-.446.38-.782.783-.782h10.731c.402 0 .738.336.783.782a.98.98 0 01-.193.689.732.732 0 01-.574.294zm-10.746-1.29c-.188 0-.35.159-.37.36-.01.12.02.232.09.32a.338.338 0 00.264.135h10.762c.1 0 .198-.05.265-.135.068-.088.1-.2.088-.32-.019-.201-.18-.36-.368-.36H33.897z" fill="#19365C"/><path d="M44.627 38.404h-10.73c-.291 0-.545.242-.577.571-.037.389.228.718.56.718h10.762c.333 0 .598-.33.561-.718-.033-.328-.287-.571-.576-.571z" fill="#fff"/><path opacity=".82" d="M44.643 39.932H33.88a.736.736 0 01-.575-.295.966.966 0 01-.192-.687c.044-.446.38-.784.783-.784h10.731c.402 0 .738.337.783.783a.976.976 0 01-.192.688.736.736 0 01-.575.295zm-10.746-1.29c-.188 0-.35.157-.37.36-.01.118.02.23.09.318a.34.34 0 00.264.135h10.762c.1 0 .198-.05.265-.135a.44.44 0 00.088-.318c-.019-.202-.18-.36-.368-.36H33.897z" fill="#19365C"/><path d="M40.744 42.168h-6.85c-.289 0-.541.243-.575.572-.037.388.228.718.561.718h6.88c.331 0 .597-.33.56-.718-.032-.329-.287-.572-.576-.572z" fill="#fff"/><path opacity=".82" d="M40.76 43.695h-6.879a.737.737 0 01-.575-.293.971.971 0 01-.193-.687c.045-.448.382-.784.782-.784h6.85c.403 0 .739.337.784.783a.974.974 0 01-.192.687.74.74 0 01-.576.294zm-6.864-1.29c-.19 0-.349.156-.37.362-.01.117.02.23.089.318a.34.34 0 00.265.135h6.88a.34.34 0 00.265-.135c.069-.087.1-.2.089-.318-.02-.201-.182-.36-.37-.36h-6.849v-.001z" fill="#19365C"/></svg>