<svg width="77" height="95" viewBox="0 0 77 95" fill="none" xmlns="http://www.w3.org/2000/svg">
<path d="M38.0952 6.58478C17.1084 6.58478 0.0952148 26.0104 0.0952148 49.9722C0.0952148 73.935 17.1084 93.3616 38.0952 93.3616C59.0812 93.3616 76.0952 73.935 76.0952 49.9722C76.0952 26.0104 59.0812 6.58478 38.0952 6.58478Z" fill="#BED8F2"/>
<path d="M17.6002 15.1715C16.5625 13.9659 14.3376 14.342 12.6322 16.0103C10.9258 17.6787 10.3838 20.0052 11.4216 21.2087L23.8802 36.6219C24.9188 37.8265 27.1427 37.4504 28.8491 35.782C30.5546 34.1136 31.0965 31.7862 30.057 30.5806L17.6002 15.1715Z" fill="white"/>
<path d="M28.8502 35.781C27.8179 36.7893 26.5965 37.3265 25.5623 37.3265C24.8874 37.3265 24.2911 37.0971 23.8813 36.6209L11.4236 21.2087C10.384 20.0052 10.926 17.6777 12.6324 16.0103C13.6638 15.0021 14.8852 14.4649 15.9185 14.4649C16.5943 14.4649 17.1906 14.6953 17.6004 15.1715L30.0572 30.5806C31.0968 31.7851 30.5548 34.1136 28.8502 35.781ZM18.0854 14.6601C18.0809 14.6539 18.0763 14.6488 18.0718 14.6436C17.5471 14.0341 16.8024 13.7108 15.9185 13.7108C14.679 13.7108 13.3254 14.3399 12.2026 15.437C11.0237 16.5889 10.289 18.1023 10.2384 19.4835C10.2049 20.3729 10.4492 21.1488 10.945 21.7273L23.3954 37.1322C23.4 37.1384 23.4045 37.1446 23.4099 37.1498C23.9347 37.7583 24.6784 38.0796 25.5614 38.0796C26.801 38.0796 28.1554 37.4504 29.2791 36.3523C30.4571 35.2004 31.1918 33.688 31.2424 32.3068C31.2759 31.4174 31.0316 30.6405 30.5349 30.0599L18.0854 14.6601Z" fill="#19365C"/>
<path d="M20.0576 18.2107V31.8925L23.8802 36.6219C24.9189 37.8264 27.1428 37.4483 28.8501 35.781C30.5547 34.1146 31.0975 31.7861 30.058 30.5816L20.0576 18.2107Z" fill="#D4E5F7"/>
<path d="M47.4046 40.9019L26.9724 56.3327L22.7263 51.999C21.6759 50.8058 20.4345 54.0114 18.7454 55.7015C17.0571 57.3916 13.2724 57.0269 14.3229 59.7418C14.3229 59.7418 20.4789 65.6943 21.1837 66.9112L30.025 82.1736C32.9791 87.2738 38.9939 88.6726 43.4607 85.3007L56.0098 75.8234C60.4766 72.4505 61.7007 65.5827 58.7476 60.4835L47.4046 40.9019Z" fill="white"/>
<path d="M59.8372 68.7242C59.3368 71.5228 57.9128 73.9319 55.8264 75.5083L43.2791 84.9856C41.7266 86.1571 39.9478 86.7635 38.1301 86.7635C37.5031 86.7635 36.8698 86.6912 36.241 86.5445C33.79 85.9742 31.681 84.3482 30.3003 81.9649L21.459 66.7025C20.7669 65.5073 15.2722 60.1664 14.5973 59.5104C14.457 59.1209 14.4353 58.811 14.5294 58.5651C14.7475 58.0052 15.5916 57.6839 16.4873 57.343C17.3333 57.0207 18.2932 56.655 18.9637 55.9835C19.5662 55.3802 20.1145 54.591 20.5977 53.8947C21.1957 53.0331 21.8164 52.1426 22.2208 52.1147C22.2778 52.1096 22.3701 52.122 22.4949 52.2635C22.4995 52.2686 22.5031 52.2728 22.5085 52.2779L26.7537 56.6116C26.8668 56.7253 27.0314 56.7397 27.1563 56.6447L47.3126 41.4215L58.4737 60.6881C59.8508 63.0724 60.3357 65.9257 59.8372 68.7242ZM47.679 40.6943C47.631 40.6116 47.5559 40.5527 47.4709 40.5331C47.3858 40.5145 47.2963 40.5331 47.223 40.5879L27.0025 55.8575L22.9519 51.7242C22.722 51.466 22.4615 51.3441 22.1819 51.3647C21.4798 51.4112 20.8628 52.3017 20.0801 53.4277C19.5907 54.1323 19.0867 54.8596 18.5276 55.4184C17.9585 55.9887 17.1026 56.3141 16.2765 56.6292C15.2406 57.0238 14.2598 57.3967 13.9269 58.2604C13.745 58.7273 13.7767 59.2614 14.02 59.8936C14.0399 59.9463 14.0698 59.9918 14.1087 60.029C15.8115 61.6746 20.3498 66.1581 20.908 67.1178L29.7493 82.3813C31.2259 84.9319 33.4842 86.6726 36.108 87.2831C36.7811 87.4401 37.4588 87.5176 38.1301 87.5176C40.0772 87.5176 41.9808 86.8678 43.6401 85.6147L56.1901 76.1385C58.423 74.4515 59.9476 71.872 60.4832 68.8761C61.017 65.8802 60.4977 62.8255 59.0211 60.2748L47.679 40.6943Z" fill="#19365C"/>
<path d="M29.4848 53.1756L21.9843 43.7768C20.9501 42.5661 18.7244 42.9339 17.0135 44.595C15.3017 46.2572 14.7525 48.5826 15.7876 49.7892L24.5294 60.6725C25.5635 61.8812 27.7892 61.5134 29.502 59.8512L29.0514 57.7541C30.7605 56.094 30.5207 54.3853 29.4848 53.1756Z" fill="#D4E5F7"/>
<path d="M29.0511 57.7542L29.5016 59.8524C28.4693 60.8524 27.2515 61.3844 26.2201 61.3844C25.5397 61.3844 24.9407 61.153 24.5282 60.6716L15.7873 49.7894C14.7522 48.5827 15.3005 46.2563 17.0132 44.5951C18.0428 43.5951 19.2606 43.0631 20.2921 43.0631C20.9725 43.0631 21.5732 43.2956 21.984 43.777L29.4854 53.1747C30.5204 54.3834 30.7602 56.0941 29.0511 57.7542ZM22.4716 43.2697C22.4662 43.2635 22.4608 43.2584 22.4563 43.2511C21.9306 42.6354 21.1824 42.31 20.2921 42.31C19.0571 42.31 17.7054 42.934 16.5862 44.0218C15.4036 45.1695 14.6636 46.6778 14.6084 48.06C14.5731 48.9495 14.8146 49.7253 15.3086 50.3069L24.0432 61.1819C24.0486 61.1881 24.0523 61.1922 24.0577 61.1984C24.5834 61.8131 25.3316 62.1365 26.221 62.1365C27.456 62.1365 28.8077 61.5125 29.9296 60.4257C30.1196 60.2408 30.2019 59.9505 30.1431 59.6726L29.7866 58.0094C30.1078 57.6509 30.3666 57.278 30.5557 56.8916C30.8009 56.3947 30.9366 55.8782 30.9574 55.3555C30.9963 54.3968 30.6534 53.465 29.9667 52.6592L22.4716 43.2697Z" fill="#19365C"/>
<path d="M29.7248 41.9257L22.2243 32.5279C21.1911 31.3172 18.9645 31.686 17.2536 33.3461C15.5426 35.0062 14.9926 37.3327 16.0276 38.5403L24.7694 49.4226C25.8045 50.6323 28.0293 50.2635 29.742 48.6033L29.2914 46.5052C31.0014 44.844 30.7617 43.1343 29.7248 41.9257Z" fill="#D4E5F7"/>
<path d="M29.2927 46.5041L29.7433 48.6022C28.7109 49.6022 27.4931 50.1343 26.4617 50.1343C25.7813 50.1343 25.1824 49.9018 24.7698 49.4214L16.0289 38.5392C14.9938 37.3326 15.543 35.0062 17.2548 33.345C18.2845 32.345 19.5023 31.813 20.5337 31.813C21.2141 31.813 21.8148 32.0454 22.2256 32.5268L29.7261 41.9245C30.7611 43.1332 31.0018 44.844 29.2927 46.5041ZM22.7124 32.0196L22.697 32.002C22.1713 31.3853 21.4231 31.0599 20.5328 31.0599C19.2978 31.0599 17.9461 31.6838 16.8269 32.7717C15.6444 33.9194 14.9043 35.4287 14.8491 36.8099C14.8138 37.6993 15.0563 38.4752 15.5494 39.0568L24.2839 49.9307C24.2894 49.938 24.293 49.9431 24.2984 49.9483C24.8241 50.563 25.5723 50.8863 26.4617 50.8863C27.6967 50.8863 29.0484 50.2624 30.1703 49.1756C30.3603 48.9917 30.4436 48.7004 30.3838 48.4214L30.0274 46.7593C30.3486 46.4008 30.6073 46.0258 30.7964 45.6415C31.0416 45.1446 31.1773 44.6281 31.1981 44.1053C31.237 43.1467 30.8941 42.2138 30.2074 41.409L22.7124 32.0196Z" fill="#19365C"/>
<path d="M26.9726 56.3327L22.7265 52.0001C22.5818 51.8348 22.4352 51.7552 22.2832 51.7408V68.5228C22.2832 68.5228 25.5394 74.2191 25.6037 74.2191H50.6909C52.5212 74.2191 54.0114 72.5176 54.0114 70.4288V52.3048L47.4057 40.9019L26.9726 56.3327Z" fill="#D4E5F7"/>
<path d="M51.0767 1.36778H25.9894C24.1591 1.36778 22.6689 3.06923 22.6689 5.1591V68.9783C22.6689 71.0672 24.1591 72.7676 25.9894 72.7676H51.0767C52.9079 72.7676 54.3962 71.0661 54.3962 68.9783V5.1591C54.3971 3.06923 52.9079 1.36778 51.0767 1.36778Z" fill="#8ABEE8"/>
<path d="M54.0671 68.9783C54.0671 70.8605 52.7263 72.3926 51.0769 72.3926H25.9897C24.3412 72.3926 22.9994 70.8605 22.9994 68.9783V5.15909C22.9994 3.27583 24.3412 1.74484 25.9897 1.74484H51.0769C52.7263 1.74484 54.0671 3.27583 54.0671 5.15909V68.9783ZM51.0769 0.991737H25.9897C23.9775 0.991737 22.3398 2.86157 22.3398 5.15909V68.9783C22.3398 71.2748 23.9775 73.1446 25.9897 73.1446H51.0769C53.09 73.1446 54.7267 71.2748 54.7267 68.9783V5.15909C54.7267 2.86157 53.09 0.991737 51.0769 0.991737Z" fill="#19365C"/>
<path d="M42.4205 6.99689H34.645C34.2551 6.99689 33.9375 7.35846 33.9375 7.8037C33.9375 8.24999 34.2551 8.61156 34.645 8.61156H42.4205C42.8105 8.61156 43.1281 8.24999 43.1281 7.8037C43.1281 7.35846 42.8114 6.99689 42.4205 6.99689Z" fill="#85CAF0"/>
<path d="M42.4205 6.39461H34.645C34.2551 6.39461 33.9375 6.75618 33.9375 7.20143C33.9375 7.64771 34.2551 8.00928 34.645 8.00928H42.4205C42.8105 8.00928 43.1281 7.64771 43.1281 7.20143C43.1281 6.75514 42.8114 6.39461 42.4205 6.39461Z" fill="#D4E5F7"/>
<path d="M42.4209 8.00927H34.6454C34.2555 8.00927 33.9379 7.6477 33.9379 7.20142C33.9379 6.75617 34.2555 6.3946 34.6454 6.3946H42.4209C42.8109 6.3946 43.1285 6.75617 43.1285 7.20142C43.1285 7.6477 42.8118 8.00927 42.4209 8.00927ZM42.4209 5.6415H34.6454C33.8918 5.6415 33.2783 6.34088 33.2783 7.20142C33.2783 8.06299 33.8927 8.76237 34.6454 8.76237H42.4209C43.1755 8.76237 43.7871 8.06299 43.7871 7.20142C43.7871 6.34088 43.1755 5.6415 42.4209 5.6415Z" fill="#19365C"/>
<path d="M41.1771 67.8109H35.8897C35.3803 67.8109 34.9668 68.2809 34.9668 68.8635C34.9668 69.4462 35.3803 69.9162 35.8897 69.9162H41.1771C41.6865 69.9162 42.099 69.4462 42.099 68.8635C42.099 68.2809 41.6865 67.8109 41.1771 67.8109Z" fill="#D4E5F7"/>
<path d="M41.1775 69.9162H35.89C35.3807 69.9162 34.9672 69.4462 34.9672 68.8635C34.9672 68.2809 35.3807 67.8109 35.89 67.8109H41.1775C41.6869 67.8109 42.0994 68.2809 42.0994 68.8635C42.0994 69.4452 41.6869 69.9162 41.1775 69.9162ZM41.1775 67.0567H35.89C35.017 67.0567 34.3076 67.8677 34.3076 68.8635C34.3076 69.8594 35.017 70.6693 35.89 70.6693H41.1775C42.0497 70.6693 42.7599 69.8594 42.7599 68.8635C42.7599 67.8677 42.0488 67.0567 41.1775 67.0567Z" fill="#19365C"/>
<path d="M52.0904 10.5816H24.9756V64.8171H52.0904V10.5816Z" fill="white"/>
<path d="M52.0908 64.8181H24.976V10.5836H52.0908V64.8181ZM52.0908 9.82948H24.976C24.6105 9.82948 24.3164 10.1673 24.3164 10.5826V64.8181C24.3164 65.2334 24.6105 65.5712 24.976 65.5712H52.0908C52.4545 65.5712 52.7504 65.2334 52.7504 64.8181V10.5826C52.7504 10.1663 52.4545 9.82948 52.0908 9.82948Z" fill="#19365C"/>
<path d="M25.6107 44.5339L20.3078 41.5226C18.9806 40.7747 16.9892 41.9678 15.86 44.1858C14.7318 46.4028 14.8938 48.8046 16.2219 49.5494L21.5248 52.5629C22.8529 53.3087 24.8434 52.1145 25.9735 49.8976C27.1017 47.6817 26.9407 45.2798 25.6107 44.5339Z" fill="white"/>
<path d="M25.9751 49.8965C25.0731 51.6662 23.6236 52.786 22.3995 52.786C22.0901 52.786 21.7951 52.7137 21.5264 52.5639L16.2218 49.5484C14.8936 48.8036 14.7316 46.4027 15.8608 44.1848C16.761 42.4162 18.2104 41.2984 19.4346 41.2984C19.7449 41.2984 20.0399 41.3707 20.3086 41.5215L25.6114 44.5329C26.9414 45.2798 27.1015 47.6817 25.9751 49.8965ZM25.9045 43.8583L20.6026 40.8469H20.6017C20.2471 40.6465 19.8544 40.5453 19.4355 40.5453C18.6918 40.5453 17.901 40.8624 17.1501 41.4616C16.419 42.0453 15.7757 42.8562 15.2917 43.8077C14.5118 45.3387 14.2557 47.0453 14.6059 48.3676C14.833 49.224 15.2917 49.8655 15.9304 50.224L21.2324 53.2374C21.2333 53.2385 21.2342 53.2385 21.236 53.2385C21.5897 53.4368 21.9815 53.5391 22.4004 53.5391C23.1441 53.5391 23.9349 53.2219 24.6876 52.6228C25.4187 52.0391 26.062 51.2281 26.5469 50.2757C27.3259 48.7447 27.582 47.0401 27.2318 45.7157C27.002 44.8614 26.5442 44.2188 25.9045 43.8583Z" fill="#19365C"/>
<path d="M20.6557 46.7591C19.9419 48.162 20.2196 49.7818 21.2764 50.3748L22.7665 51.2116C23.2162 50.7922 23.3917 50.818 24.4756 48.7292C25.3487 47.0463 25.3551 46.1248 25.3551 46.1248L23.8649 45.2901C22.8073 44.6961 21.3705 45.3542 20.6557 46.7591Z" fill="#D4E5F7"/>
<path d="M24.4751 48.7293C23.3921 50.8181 23.2148 50.7923 22.7669 51.2117L21.2768 50.3749C20.2191 49.7799 19.9423 48.1621 20.6561 46.7592C21.1917 45.7045 22.1345 45.0712 23.0193 45.0712C23.3134 45.0712 23.6011 45.1414 23.8653 45.2902L25.3563 46.1249C25.3554 46.1259 25.3482 47.0464 24.4751 48.7293ZM25.6459 45.4493L24.1557 44.6146C23.8065 44.4183 23.4229 44.3191 23.0184 44.3191C21.873 44.3191 20.7222 45.129 20.0843 46.3811C19.6066 47.3212 19.4745 48.3935 19.7215 49.3253C19.9251 50.095 20.3747 50.7096 20.9854 51.0526L22.4756 51.8873C22.5679 51.9379 22.6683 51.9658 22.7669 51.9658C22.9162 51.9658 23.0646 51.908 23.184 51.7943C23.2365 51.7458 23.2853 51.7024 23.3369 51.658C23.773 51.2778 24.0888 50.9524 25.0433 49.1125C25.9797 47.3078 26.0141 46.2468 26.015 46.1321C26.0168 45.8429 25.8739 45.5764 25.6459 45.4493Z" fill="#19365C"/>
<path d="M20.6559 46.7593C20.3429 47.3761 20.2208 48.0331 20.2705 48.6271C20.8541 48.3626 21.3951 47.8451 21.7543 47.1395C22.0674 46.5228 22.1904 45.8657 22.1388 45.2717C21.5553 45.5372 21.0142 46.0538 20.6559 46.7593Z" fill="white"/>
<path d="M24.3024 55.2035L19.0005 52.1921C17.6723 51.4442 15.6801 52.6374 14.5518 54.8554C13.4227 57.0723 13.5855 59.4752 14.9137 60.22L20.2165 63.2335C21.5447 63.9793 23.5361 62.7841 24.6652 60.5682C25.7935 58.3512 25.6315 55.9494 24.3024 55.2035Z" fill="white"/>
<path d="M24.6655 60.5671C23.7635 62.3367 22.3141 63.4576 21.0899 63.4576C20.7805 63.4576 20.4855 63.3842 20.2168 63.2344L14.9122 60.2189C13.584 59.4741 13.4221 57.0743 14.5512 54.8553C15.4515 53.0867 16.9018 51.97 18.125 51.97C18.4354 51.97 18.7303 52.0413 18.999 52.1921L24.3018 55.2035C25.6327 55.9493 25.7938 58.3522 24.6655 60.5671ZM24.595 54.5278L19.294 51.5175H19.2922C18.9375 51.3171 18.5448 51.2159 18.1259 51.2159C17.3822 51.2159 16.5915 51.533 15.8405 52.1301C15.1095 52.7148 14.4671 53.5247 13.9821 54.4762C13.2022 56.0072 12.9462 57.7138 13.2963 59.0371C13.5234 59.8935 13.9821 60.5351 14.6209 60.8925L19.9237 63.908H19.9255C20.2802 64.1074 20.671 64.2086 21.0899 64.2086C21.8345 64.2086 22.6244 63.8925 23.3772 63.2944C24.1082 62.7107 24.7515 61.8987 25.2365 60.9462C26.0155 59.4152 26.2715 57.7117 25.9214 56.3884C25.6925 55.532 25.2346 54.8894 24.595 54.5278Z" fill="#19365C"/>
<path d="M23.1717 32.5651L21.117 31.2965C19.4369 30.3482 17.1315 31.3647 15.9671 33.562C14.8036 35.7583 15.2225 38.3069 16.9035 39.2511L18.9592 40.5238C20.6402 41.469 22.9455 40.4525 24.1091 38.2552C25.2726 36.0589 24.8537 33.5104 23.1717 32.5651Z" fill="white"/>
<path d="M24.1104 38.2551C23.2418 39.8946 21.7372 40.8771 20.3312 40.8771C19.8535 40.8771 19.3866 40.7634 18.9596 40.5227L16.9031 39.25C15.222 38.3058 14.8031 35.7572 15.9675 33.5609C16.8352 31.9215 18.3389 30.9401 19.7431 30.9401C20.2217 30.9401 20.6904 31.0537 21.1165 31.2954L23.1722 32.564C24.8541 33.5103 25.2721 36.0589 24.1104 38.2551ZM23.4753 31.8956L21.4305 30.6332C21.4233 30.6281 21.416 30.625 21.4088 30.6198C20.9003 30.3326 20.3394 30.187 19.7431 30.187C18.0657 30.187 16.3629 31.3585 15.4021 33.1715C14.6792 34.5361 14.4638 36.095 14.8104 37.4483C15.0926 38.5485 15.7278 39.4256 16.5991 39.9194L18.6447 41.1849C18.6529 41.1901 18.6601 41.1942 18.6674 41.1994C19.1758 41.4855 19.7359 41.6301 20.3312 41.6301C21.1509 41.6301 21.9905 41.3523 22.7605 40.8275C23.5368 40.2975 24.1982 39.5434 24.6741 38.6456C25.397 37.281 25.6123 35.7221 25.2649 34.3688C24.9826 33.2675 24.3475 32.3915 23.4753 31.8956Z" fill="#19365C"/>
<path d="M19.6482 35.5599C18.9488 36.9711 19.0918 38.5134 19.9685 39.0051L21.2035 39.6973C21.6152 39.2582 21.7663 39.2675 22.8266 37.1653C23.6798 35.4711 23.7404 34.5816 23.7404 34.5816L22.5045 33.8905C21.6269 33.3987 20.3485 34.1467 19.6482 35.5599Z" fill="#D4E5F7"/>
<path d="M22.8264 37.1663C21.766 39.2675 21.6158 39.2572 21.2033 39.6983L19.9683 39.0061C19.0916 38.5144 18.9486 36.972 19.648 35.5609C20.2026 34.4421 21.1191 33.7396 21.9126 33.7396C22.1207 33.7396 22.3216 33.7882 22.5034 33.8915L23.7393 34.5816C23.7402 34.5816 23.6796 35.471 22.8264 37.1663ZM24.0306 33.9049L22.7947 33.2138C22.5251 33.063 22.2284 32.9865 21.9135 32.9865C20.8513 32.9865 19.7376 33.8501 19.0744 35.189C18.5623 36.222 18.4121 37.347 18.6627 38.2758C18.8346 38.9111 19.1956 39.4101 19.6778 39.6807L20.9137 40.3729C21.006 40.4235 21.1056 40.4504 21.2042 40.4504C21.3679 40.4504 21.5299 40.3801 21.6547 40.2468C21.7036 40.1942 21.7479 40.1497 21.7959 40.1022C22.1994 39.6962 22.4726 39.376 23.3982 37.5413C24.3003 35.751 24.3907 34.7479 24.398 34.6404C24.4188 34.3316 24.2731 34.0402 24.0306 33.9049Z" fill="#19365C"/>
<path d="M19.6481 35.5599C19.3133 36.2355 19.1713 36.9431 19.2111 37.5485C19.7793 37.2685 20.3348 36.6952 20.7175 35.9235C21.0523 35.2468 21.1943 34.5402 21.1545 33.9338C20.5863 34.2148 20.0308 34.7882 19.6481 35.5599Z" fill="white"/>
<path d="M18.9594 57.2799C18.2456 58.6828 18.5233 60.3026 19.5801 60.8956L21.0702 61.7324C21.5199 61.314 21.6954 61.3377 22.7793 59.2499C23.6524 57.5671 23.6588 56.6456 23.6588 56.6456L22.1686 55.8109C21.1119 55.2169 19.6742 55.8749 18.9594 57.2799Z" fill="#D4E5F7"/>
<path d="M22.7793 59.25C21.6963 61.3388 21.519 61.313 21.0711 61.7324L19.581 60.8946C18.5233 60.3006 18.2465 58.6828 18.9603 57.28C19.4959 56.2252 20.4387 55.5919 21.3235 55.5919C21.6176 55.5919 21.9053 55.6622 22.1695 55.8109L23.6605 56.6457C23.6596 56.6467 23.6524 57.5671 22.7793 59.25ZM23.9501 55.97L22.4599 55.1353C22.1107 54.939 21.7271 54.8399 21.3226 54.8399C20.1772 54.8399 19.0264 55.6488 18.3885 56.9019C17.9108 57.8419 17.7787 58.9143 18.0257 59.8461C18.2293 60.6157 18.6789 61.2304 19.2896 61.5733L20.7798 62.4101C20.8721 62.4607 20.9725 62.4876 21.0711 62.4876C21.2204 62.4876 21.3688 62.4297 21.4882 62.3161C21.5407 62.2676 21.5895 62.2242 21.6411 62.1797C22.0772 61.7996 22.393 61.4742 23.3475 59.6353C24.2839 57.8285 24.3183 56.7686 24.3192 56.6539C24.3219 56.3636 24.1781 56.0961 23.9501 55.97Z" fill="#19365C"/>
<path d="M18.9597 57.2798C18.6466 57.8976 18.5245 58.5536 18.5742 59.1476C19.1578 58.8831 19.6988 58.3656 20.058 57.66C20.3711 57.0433 20.4941 56.3862 20.4426 55.7922C19.8599 56.0577 19.3188 56.5742 18.9597 57.2798Z" fill="white"/>
<path d="M58.8467 38.2335C55.6764 38.2335 53.1051 41.1674 53.1051 44.7883V58.0093C49.477 60.2542 46.978 64.9907 46.978 70.4691C46.978 71.8224 47.13 73.1302 47.415 74.3668L50.1537 80.2449L56.0085 75.8234C58.5807 73.8802 60.0781 70.78 60.3196 67.5259V56.9753V39.9164C60.3196 38.9866 59.6601 38.2335 58.8467 38.2335Z" fill="white"/>
<path d="M58.8464 37.8562C55.4996 37.8562 52.7754 40.9647 52.7754 44.788V57.787C50.9876 58.943 49.4757 60.6858 48.3955 62.8397C47.2518 65.1186 46.6475 67.755 46.6475 70.4698C46.6475 71.8273 46.7995 73.1703 47.0962 74.4616C47.1424 74.663 47.3233 74.7839 47.4997 74.7312C47.6753 74.6785 47.7793 74.4719 47.7341 74.2705C47.4518 73.0432 47.307 71.7643 47.307 70.4698C47.307 67.8872 47.8825 65.3779 48.9691 63.2137C50.0231 61.1134 51.5078 59.4265 53.2649 58.3397C53.3698 58.2746 53.4368 58.1486 53.4368 58.0091V44.788C53.4368 41.381 55.8643 38.6093 58.8473 38.6093C59.4779 38.6093 59.9918 39.1951 59.9918 39.9151V67.5081C59.7412 70.7829 58.2239 73.6971 55.8281 75.5081L49.9725 79.9306C49.8196 80.0463 49.7779 80.2787 49.8802 80.4523C49.9426 80.5618 50.0467 80.6217 50.1543 80.6217C50.2158 80.6217 50.2801 80.6 50.3353 80.5587L56.19 76.1362C58.7604 74.1951 60.3854 71.069 60.6487 67.5566C60.6487 67.5463 60.6496 67.5349 60.6496 67.5246V39.9151C60.6496 38.7798 59.8398 37.8562 58.8464 37.8562Z" fill="#19365C"/>
<path d="M59.7877 40.313C58.4568 40.313 57.3774 41.5465 57.3774 43.0671V45.9401H60.3215V40.3812C60.1496 40.3368 59.9705 40.313 59.7877 40.313Z" fill="#D4E5F7"/>
<path d="M59.989 45.562H57.7045V43.0661C57.7045 41.7562 58.6391 40.689 59.7882 40.689C59.8533 40.689 59.9221 40.6921 59.989 40.7014V45.562ZM60.3916 40.0134C60.1926 39.9628 59.989 39.936 59.7882 39.936C58.2763 39.936 57.0449 41.3399 57.0449 43.0661V45.939C57.0449 46.1467 57.1933 46.3161 57.3761 46.3161H60.3202C60.5011 46.3161 60.6486 46.1477 60.6486 45.939V40.3802C60.6486 40.2045 60.5436 40.0527 60.3916 40.0134Z" fill="#19365C"/>
<path d="M60.2456 51.7901H57.8118C57.63 51.7901 57.4834 51.9585 57.4834 52.1672C57.4834 52.3759 57.63 52.5443 57.8118 52.5443H60.2456C60.4275 52.5443 60.5741 52.3759 60.5741 52.1672C60.5741 51.9585 60.4275 51.7901 60.2456 51.7901Z" fill="#19365C"/>
<path d="M58.9193 52.8842H57.8127C57.6309 52.8842 57.4834 53.0526 57.4834 53.2613C57.4834 53.47 57.6309 53.6384 57.8127 53.6384H58.9193C59.1011 53.6384 59.2477 53.47 59.2477 53.2613C59.2477 53.0526 59.1011 52.8842 58.9193 52.8842Z" fill="#19365C"/>
<path d="M39.425 87.3729C38.3664 88.1519 37.2409 91.094 36.7812 93.3357C37.2173 93.3512 37.6553 93.3605 38.0941 93.3605C48.5305 93.3605 57.9843 88.5568 64.8515 80.78L60.1485 72.1116L39.425 87.3729Z" fill="#19365C"/>
<path d="M38.0952 93.3616C37.6563 93.3616 37.2184 93.3523 36.7823 93.3347C37.242 91.093 38.3666 88.1529 39.4252 87.375L60.1496 72.1116L64.8517 80.781C57.9836 88.5578 48.5316 93.3616 38.0952 93.3616ZM60.7097 71.7149C60.6156 71.5423 60.4663 71.4215 60.2935 71.3771C60.2455 71.3636 60.1976 71.3585 60.1487 71.3585C60.023 71.3585 59.899 71.3988 59.7904 71.4793L39.0678 86.7397C38.4661 87.1828 37.8672 88.1033 37.2854 89.4773C36.805 90.6126 36.3861 91.9556 36.1391 93.1632C36.0947 93.3822 36.1382 93.6136 36.2576 93.7913C36.3779 93.9711 36.5616 94.0785 36.7579 94.0857C37.2139 94.1043 37.6645 94.1126 38.0952 94.1126C40.7036 94.1126 43.3102 93.814 45.8444 93.2252C48.3144 92.6518 50.7446 91.7944 53.0672 90.6808C55.349 89.5847 57.5493 88.2283 59.6086 86.6508C61.6488 85.0888 63.5696 83.2913 65.3167 81.313C65.5357 81.0661 65.5746 80.6808 65.4135 80.3833L60.7097 71.7149Z" fill="#19365C"/>
<path d="M46.7091 31.4009H31.8149C31.216 31.4009 30.7319 31.9546 30.7319 32.6374V45.7738C30.7319 46.4566 31.216 47.0104 31.8149 47.0104H37.3503V49.8306C37.3503 50.3936 37.9456 50.6757 38.2939 50.2769L41.1548 47.0104H46.71C47.3081 47.0104 47.793 46.4566 47.793 45.7738V32.6374C47.7921 31.9546 47.3081 31.4009 46.7091 31.4009Z" fill="#F9B234"/>
<g opacity="0.82">
<g opacity="0.82">
<g opacity="0.82">
<path opacity="0.82" d="M37.9078 50.7023C37.8091 50.7023 37.7087 50.6806 37.6119 50.6341C37.3224 50.4967 37.1423 50.1899 37.1423 49.8314V47.2488H31.816C31.104 47.2488 30.5249 46.5866 30.5249 45.7746V32.6372C30.5249 31.8242 31.1049 31.163 31.816 31.163H46.7111C47.4231 31.163 48.0022 31.8252 48.0022 32.6372V45.7736C48.0022 46.5866 47.4231 47.2477 46.7111 47.2477H41.2418L38.4425 50.4461C38.2932 50.6145 38.1032 50.7023 37.9078 50.7023ZM31.8151 31.6382C31.3329 31.6382 30.9402 32.0855 30.9402 32.6372V45.7736C30.9402 46.3242 31.3319 46.7725 31.8151 46.7725H37.3504C37.4653 46.7725 37.5585 46.8789 37.5585 47.0101V49.8314C37.5585 49.9957 37.6381 50.132 37.7711 50.1961C37.9041 50.2581 38.0444 50.2271 38.1466 50.1103L41.0075 46.8428C41.0473 46.7984 41.0998 46.7736 41.155 46.7736H46.7111C47.1933 46.7736 47.586 46.3262 47.586 45.7746V32.6372C47.586 32.0866 47.1942 31.6382 46.7111 31.6382H31.8151Z" fill="#19365C"/>
</g>
</g>
</g>
<path d="M44.6267 34.6405H33.8962C33.6058 34.6405 33.3524 34.8833 33.3199 35.2118C33.2828 35.6002 33.5479 35.9298 33.8808 35.9298H44.6421C44.975 35.9298 45.2401 35.6002 45.203 35.2118C45.1704 34.8823 44.9162 34.6405 44.6267 34.6405Z" fill="white"/>
<g opacity="0.82">
<g opacity="0.82">
<g opacity="0.82">
<path opacity="0.82" d="M44.6426 36.1672H33.8804C33.6615 36.1672 33.4516 36.0597 33.305 35.8738C33.1584 35.6868 33.0888 35.4358 33.1132 35.1847C33.1566 34.7384 33.4932 34.4017 33.8958 34.4017H44.6272C45.0289 34.4017 45.3646 34.7384 45.4098 35.1837C45.4333 35.4347 45.3628 35.6858 45.2171 35.8727C45.0714 36.0597 44.8615 36.1672 44.6426 36.1672ZM33.8967 34.8779C33.7094 34.8779 33.5475 35.036 33.5276 35.2374C33.5167 35.3562 33.5475 35.4688 33.6162 35.5566C33.6832 35.6424 33.78 35.692 33.8813 35.692H44.6426C44.7439 35.692 44.8407 35.6424 44.9077 35.5566C44.9764 35.4688 45.0081 35.3562 44.9963 35.2374C44.9773 35.036 44.8154 34.8779 44.6281 34.8779H33.8967Z" fill="#19365C"/>
</g>
</g>
</g>
<path d="M44.6267 38.4038H33.8962C33.6058 38.4038 33.3524 38.6465 33.3199 38.975C33.2828 39.3635 33.5479 39.693 33.8808 39.693H44.6421C44.975 39.693 45.2401 39.3635 45.203 38.975C45.1704 38.6465 44.9162 38.4038 44.6267 38.4038Z" fill="white"/>
<g opacity="0.82">
<g opacity="0.82">
<g opacity="0.82">
<path opacity="0.82" d="M44.6426 39.9317H33.8804C33.6615 39.9317 33.4516 39.8242 33.305 39.6373C33.1584 39.4513 33.0888 39.2003 33.1132 38.9503C33.1566 38.504 33.4932 38.1662 33.8958 38.1662H44.6272C45.0289 38.1662 45.3646 38.503 45.4098 38.9492C45.4333 39.2003 45.3637 39.4513 45.218 39.6373C45.0714 39.8242 44.8615 39.9317 44.6426 39.9317ZM33.8967 38.6414C33.7094 38.6414 33.5475 38.7994 33.5276 39.0019C33.5167 39.1197 33.5475 39.2323 33.6162 39.3201C33.6841 39.4059 33.78 39.4554 33.8813 39.4554H44.6426C44.7439 39.4554 44.8407 39.4059 44.9077 39.3201C44.9764 39.2323 45.0081 39.1197 44.9963 39.0019C44.9773 38.8005 44.8154 38.6414 44.6281 38.6414H33.8967Z" fill="#19365C"/>
</g>
</g>
</g>
<path d="M40.7439 42.1683H33.8948C33.6053 42.1683 33.3529 42.411 33.3194 42.7396C33.2823 43.128 33.5474 43.4575 33.8803 43.4575H40.7592C41.0913 43.4575 41.3573 43.128 41.3202 42.7396C41.2885 42.411 41.0334 42.1683 40.7439 42.1683Z" fill="white"/>
<g opacity="0.82">
<g opacity="0.82">
<g opacity="0.82">
<path opacity="0.82" d="M40.7608 43.6951H33.881C33.6621 43.6951 33.4522 43.5877 33.3056 43.4018C33.159 43.2158 33.0894 42.9648 33.1129 42.7148C33.1581 42.2675 33.4947 41.9307 33.8955 41.9307H40.7455C41.1481 41.9307 41.4837 42.2675 41.529 42.7137C41.5525 42.9648 41.4828 43.2148 41.3372 43.4007C41.1888 43.5877 40.9798 43.6951 40.7608 43.6951ZM33.8955 42.4059C33.7064 42.4059 33.5472 42.5608 33.5264 42.7675C33.5155 42.8842 33.5463 42.9968 33.615 43.0846C33.6829 43.1704 33.7788 43.2199 33.8801 43.2199H40.7599C40.8613 43.2199 40.9581 43.1704 41.025 43.0846C41.0938 42.9978 41.1255 42.8852 41.1137 42.7675C41.0947 42.566 40.9318 42.4069 40.7446 42.4069H33.8955V42.4059Z" fill="#19365C"/>
</g>
</g>
</g>
</svg>
